<?xml version="1.0" encoding="UTF-8" standalone="no"?>
<svg
   id="svg8"
   version="1.1"
   viewBox="0 0 4.2333331 4.2333332"
   height="16"
   width="16"
   sodipodi:docname="appimage.svg"
   inkscape:version="1.4 (e7c3feb100, 2024-10-09)"
   xmlns:inkscape="http://www.inkscape.org/namespaces/inkscape"
   xmlns:sodipodi="http://sodipodi.sourceforge.net/DTD/sodipodi-0.dtd"
   xmlns="http://www.w3.org/2000/svg"
   xmlns:svg="http://www.w3.org/2000/svg"
   xmlns:rdf="http://www.w3.org/1999/02/22-rdf-syntax-ns#"
   xmlns:cc="http://creativecommons.org/ns#"
   xmlns:dc="http://purl.org/dc/elements/1.1/">
  <sodipodi:namedview
     id="namedview1"
     pagecolor="#505050"
     bordercolor="#eeeeee"
     borderopacity="1"
     inkscape:showpageshadow="0"
     inkscape:pageopacity="0"
     inkscape:pagecheckerboard="0"
     inkscape:deskcolor="#505050"
     inkscape:zoom="72.9375"
     inkscape:cx="5.2442159"
     inkscape:cy="8.3976007"
     inkscape:window-width="2558"
     inkscape:window-height="1376"
     inkscape:window-x="0"
     inkscape:window-y="0"
     inkscape:window-maximized="0"
     inkscape:current-layer="svg8" />
  <defs
     id="defs2" />
  <metadata
     id="metadata5">
    <rdf:RDF>
      <cc:Work
         rdf:about="">
        <dc:format>image/svg+xml</dc:format>
        <dc:type
           rdf:resource="http://purl.org/dc/dcmitype/StillImage" />
        <dc:title />
      </cc:Work>
    </rdf:RDF>
  </metadata>
  <g
     id="g2"
     style="fill:#0055d4;fill-opacity:1">
    <path
       d="M 0.77753788,3.8934694 V 0.42303223 H 2.6169089 c 0.1074277,0.0366826 0.2069948,0.0825359 0.2987013,0.1375598 0.094327,0.0550239 0.1742424,0.11528822 0.2397471,0.18079287 0.070745,0.0655047 0.1336295,0.13886989 0.1886534,0.22009568 0.055024,0.0812258 0.1192186,0.19913422 0.1925837,0.35372522 v 2.5782636 z m 0.098257,-0.1021872 H 3.4344071 V 1.3112755 C 3.3872438,1.2693525 3.3413905,1.23398 3.2968473,1.2051579 3.2549244,1.1737157 3.19335,1.1448937 3.1121242,1.1186918 3.0466195,1.1003505 2.9732543,1.0872495 2.8920285,1.079389 2.8134229,1.0715284 2.7466081,1.066288 2.6915842,1.0636679 l -0.082536,-0.00393 0.00786,-0.0825359 c 0.010481,-0.0917065 0.014411,-0.17424241 0.011791,-0.24760764 0,-0.0759854 -0.00524,-0.14542035 -0.015721,-0.20830483 H 0.87579488 Z"
       id="text1"
       style="font-size:3.93028px;font-family:Montserrat;-inkscape-font-specification:Montserrat;stroke-width:0.327523;fill:#0055d4;fill-opacity:1"
       aria-label="🗎"
       sodipodi:nodetypes="cccccscccccccccscccccc" />
    <path
       d="m 1.9971729,1.2863719 q 0.066663,-0.00775 0.1348755,-0.00775 0.068213,0 0.1348755,0.00775 l 0.040308,0.2899048 q 0.1038696,0.020154 0.2030884,0.066663 L 2.7056568,1.4383006 q 0.1178222,0.069763 0.217041,0.168982 L 2.7924732,1.8491282 q 0.072864,0.077515 0.1240234,0.1705323 L 3.172295,1.9716015 Q 3.229656,2.1018261 3.25446,2.2444531 L 3.0250171,2.3514232 q 0.0062,0.05426 0.0062,0.1069702 0,0.05271 -0.0062,0.1069702 L 3.2544605,2.6738841 Q 3.2296558,2.8149608 3.172295,2.9451854 L 2.9164966,2.8971263 q -0.05116,0.093018 -0.1240234,0.1720825 l 0.1302246,0.2402954 q -0.099219,0.099219 -0.217041,0.1705322 L 2.5103199,3.2753978 q -0.099219,0.044958 -0.2030884,0.066663 l -0.040308,0.2883544 q -0.066663,0.0093 -0.1348755,0.0093 -0.068213,0 -0.1348755,-0.0093 L 1.9568653,3.3420604 Q 1.8529957,3.3203563 1.7537769,3.2753978 L 1.55844,3.4800364 Q 1.4406177,3.408723 1.341399,3.3095042 L 1.4716236,3.0692088 Q 1.3987598,2.9916942 1.3476002,2.8971263 L 1.0918018,2.9451854 Q 1.034441,2.8149608 1.0096363,2.6738841 L 1.2390797,2.5653636 q -0.0062,-0.05426 -0.0062,-0.1069702 0,-0.05271 0.0062,-0.1069702 L 1.0096363,2.244453 q 0.024805,-0.142627 0.082166,-0.2728516 l 0.2557984,0.048059 Q 1.3987598,1.9266429 1.4716236,1.847578 L 1.341399,1.6072826 Q 1.440618,1.5080636 1.55844,1.4383006 L 1.7537769,1.641389 q 0.099219,-0.044958 0.2030884,-0.065112 z M 2.6141895,1.9778026 Q 2.4142017,1.7762645 2.1320484,1.7762645 q -0.2821533,0 -0.4821411,0.2015381 -0.1999878,0.1999878 -0.1999878,0.4821411 0,0.280603 0.1999878,0.4805908 0.1999878,0.1999878 0.4821411,0.1999878 0.2821533,0 0.4821411,-0.1999878 0.1999878,-0.1999878 0.1999878,-0.4805908 0,-0.2821533 -0.1999878,-0.4821411 z M 2.3010303,2.2894114 q 0.071314,0.069763 0.071314,0.168982 0,0.099219 -0.071314,0.1705322 -0.069763,0.069763 -0.1689819,0.069763 -0.099219,0 -0.1705322,-0.069763 -0.069763,-0.071314 -0.069763,-0.1705322 0,-0.099219 0.069763,-0.168982 0.071313,-0.071313 0.1705322,-0.071313 0.099219,0 0.1689819,0.071313 z"
       id="text2"
       style="font-size:3.175px;font-family:Montserrat;-inkscape-font-specification:Montserrat;stroke-width:0.264583;fill:#0055d4;fill-opacity:1"
       aria-label="⚙" />
  </g>
</svg>
