<svg xmlns="http://www.w3.org/2000/svg" xmlns:svg="http://www.w3.org/2000/svg" id="svg5" width="100%" height="100%" fill-rule="evenodd" stroke-linejoin="round" stroke-miterlimit="2" clip-rule="evenodd" version="1.1" viewBox="0 0 96 96" xml:space="preserve"><metadata id="metadata11"/><path id="bg" fill="#00415a" fill-opacity="1" stroke="none" stroke-opacity="1" d="M 96,2.88 C 96,1.29 94.71,0 93.12,0 H 2.88 C 1.29,0 0,1.29 0,2.88 V 93.12 C 0,94.71 1.29,96 2.88,96 H 93.12 C 94.71,96 96,94.71 96,93.12 Z"/><path id="appimagehub-logo" fill="#fff" stroke="none" stroke-opacity="1" d="M 36.221,24.835 43.969,5 h 8.062 l 21.655,55.435 c -4.124,2.666 -9.085,4.375 -14.274,5.346 L 48,37.25 35.597,68.257 C 39.475,69.062 43.65,69.5 48,69.5 c 20.395,0 36.953,-9.634 36.953,-21.5 0,-6.531 -5.015,-12.385 -12.925,-16.329 -0.74,0.956 -1.898,1.572 -3.2,1.572 -2.231,0 -4.043,-1.812 -4.043,-4.043 0,-2.232 1.812,-4.044 4.043,-4.044 2.082,0 3.799,1.577 4.019,3.601 C 83.829,33.628 91,41.638 91,50.687 c 0,7.695 -5.185,14.639 -13.489,19.54 -4.296,2.602 -9.103,4.407 -14.098,5.555 -4.786,1.15 -9.983,1.78 -15.413,1.78 -5.43,0 -10.627,-0.63 -15.413,-1.78 L 26.5,91 H 10.375 L 18.489,70.227 C 10.185,65.326 5,58.382 5,50.687 5,38.407 18.207,28.04 36.221,24.835 Z M 85.625,91 H 69.5 L 64.434,78.336 c 4.94,-1.211 9.7,-3.033 14.068,-5.571 z M 35.038,27.862 C 21.029,30.919 11.047,38.787 11.047,48 c 0,5.778 3.925,11.026 10.308,14.891 z"/></svg>
